<svg width="31" height="29" viewBox="0 0 31 29" fill="none" xmlns="http://www.w3.org/2000/svg">
<path d="M21.1344 0.0242155C19.3129 -0.249441 17.3833 1.82713 16.8276 4.69247C16.2718 7.54172 17.2752 10.0851 19.0968 10.3749C20.9029 10.6646 22.8479 8.58805 23.4191 5.72271C23.9903 2.87346 22.956 0.330067 21.1344 0.0242155ZM10.0971 0.0242155C8.26013 0.330067 7.2413 2.87346 7.78159 5.72271C8.36819 8.58805 10.2978 10.6646 12.1193 10.3749C13.9563 10.0851 14.9597 7.54172 14.3885 4.69247C13.8328 1.82713 11.9032 -0.249441 10.0971 0.0242155ZM29.3931 7.42904C27.6333 6.64026 25.2406 8.07294 23.9903 10.568C22.8171 13.1114 23.2184 15.7836 24.9628 16.5724C26.7071 17.3612 29.0844 15.9446 30.3039 13.4173C31.5234 10.89 31.0912 8.20172 29.3931 7.42904ZM1.60685 7.42904C-0.091198 8.20172 -0.52343 10.89 0.696079 13.4173C1.91559 15.9446 4.29286 17.3612 6.03723 16.5724C7.78159 15.7836 8.18294 13.1114 7.00974 10.568C5.75936 8.07294 3.36665 6.64026 1.60685 7.42904ZM4.1848 24.7821C4.12306 26.2952 5.23451 27.9694 6.56207 28.5972C9.32527 29.9172 12.5979 27.1806 15.6698 27.1806C18.7417 27.1806 22.0452 30.0298 24.7621 28.5972C26.3058 27.8084 27.3709 25.7157 27.1702 23.9772C26.8924 21.5787 24.1292 20.2909 22.4929 18.5363C20.3163 16.2665 18.7726 12.0007 15.6698 12.0007C12.5824 12.0007 10.9461 16.2021 8.86217 18.5363C7.14868 20.5002 4.29286 22.1582 4.1848 24.7821Z" fill="white"/>
</svg>
